# xmcd
#
# Track frame offsets: 
#        182
#        16257
#        31350
#        47765
#        62120
#        77067
#        92350
#        110170
#        127417
#        140295
#
# Disc length: 2031 seconds
#
# Revision: 7
# Processed by: cddbd v1.5.2PL0 Copyright (c) Steve Scherf et al.
# Submitted via: ExactAudioCopy v1.0b1
#
DISCID=8507ed0a
DTITLE=Various Artist - Billboard Top Country Hits 1987
DYEAR=1993
DGENRE=Country
TTITLE0=Randy Travis - Forever And Ever Amen
TTITLE1=Forester Sisters - You Again
TTITLE2=Exile - She's Too Good To Be True
TTITLE3=Dan Seals - One Friend
TTITLE4=Highway 101 - Somewhere Tonight
TTITLE5=Nitty Gritty Dirt Band - Fishin' In The Dark
TTITLE6=Rosanne Cash - The Way We Make A Broken Heart
TTITLE7=Steve Wariner - The Weekend
TTITLE8=O'Kanes - Can't Stop My Heart From Loving You
TTITLE9=Hank Williams Jr. - Born To Boogie
EXTD=
EXTT0=
EXTT1=
EXTT2=
EXTT3=
EXTT4=
EXTT5=
EXTT6=
EXTT7=
EXTT8=
EXTT9=
PLAYORDER=
